<svg id="Capa_1" enable-background="new 0 0 512 512" height="512" viewBox="0 0 512 512" width="512" xmlns="http://www.w3.org/2000/svg" style="fill: white"><g><path d="m21.516 284.511c.28-.135 28.418-13.511 54.484-13.511 19.351 0 42.23 18.499 49.394 25.607l10.586 10.545 10.606-10.525c7.184-7.128 30.063-25.627 49.414-25.627 16.351 0 35.221 13.208 45 21.591v174.409c0 24.813 20.187 45 45 45s45-20.187 45-45v-30h-30v30c0 8.271-6.729 15-15 15s-15-6.729-15-15v-174.408c9.795-8.396 28.656-21.592 45-21.592 19.351 0 42.23 18.499 49.394 25.607l10.586 10.545 10.606-10.525c7.184-7.128 30.063-25.627 49.414-25.627 26.008 0 54.076 13.316 54.482 13.51l21.518 10.412v-23.922c0-135.26-106.347-233.764-241-240.605v-30.395h-30v30.395c-134.698 6.844-241 105.389-241 240.605l.019 23.841zm130.657-29.701c4.614-61.925 32.072-171.303 88.827-192.032v192.741c-12.506-7.637-28.383-14.519-45-14.519-16.102 0-31.509 6.462-43.827 13.81zm118.827.708v-192.74c57.003 20.82 84.224 130.259 88.827 192.033-12.318-7.349-27.725-13.811-43.827-13.811-16.617 0-32.494 6.882-45 14.518zm209.872-6.768c-12.478-3.953-28.678-7.75-44.872-7.75-17.069 0-33.354 7.262-46.009 15.142-4.137-61.704-22.771-137.874-61.977-186.016 84.227 24.72 144.033 92.517 152.858 178.624zm-296.886-178.624c-39.205 48.142-57.84 124.312-61.977 186.016-12.655-7.88-28.94-15.142-46.009-15.142-16.194 0-32.394 3.797-44.872 7.75 8.825-86.107 68.631-153.904 152.858-178.624z"/></g></svg>